<svg width="12" height="15" viewBox="0 0 12 15" fill="none" xmlns="http://www.w3.org/2000/svg">
<path d="M8.92628 2.69936C8.442 2.09715 8.17507 1.3239 8.17514 0.523438H5.98552V10.0913C5.96898 10.6092 5.76834 11.0999 5.42593 11.4598C5.08351 11.8197 4.6261 12.0207 4.1502 12.0204C3.14396 12.0204 2.3078 11.1253 2.3078 10.0142C2.3078 8.68702 3.4841 7.69165 4.69583 8.1006V5.66233C2.25111 5.30739 0.111084 7.37529 0.111084 10.0142C0.111084 12.5836 2.06687 14.4123 4.14311 14.4123C6.36817 14.4123 8.17514 12.4447 8.17514 10.0142V5.16078C9.06304 5.85511 10.1291 6.22764 11.2222 6.2256V3.84134C11.2222 3.84134 9.89 3.91078 8.92628 2.69936Z" fill="white"/>
</svg>
